<?xml version="1.0"?>
<svg width="200" height="100" xmlns="http://www.w3.org/2000/svg" xmlns:svg="http://www.w3.org/2000/svg" xml:space="preserve">
 <g class="layer">
  <title>Layer 1</title>
  <g id="svg_1" transform="translate(4.05146 15.0163) scale(1.04897 1.03207) translate(-4.05146 -15.0163) translate(4 15) matrix(1.92657 0 0 1.5961 -99.8739 -48.5982)">
   <path d="m0,0c0.7,13.21 1.12,26.4 1.19,39.63l0.04,3.69c0.02,23.4 0.02,23.4 -5.23,29.68c-2.89,0.5 -5.21,0.66 -8.11,0.6l-2.53,0.01c-2.81,0.01 -5.62,-0.02 -8.43,-0.04c-2.01,0 -4.02,0 -6.03,0c-5.46,0 -10.93,-0.03 -16.4,-0.06c-5.71,-0.03 -11.42,-0.04 -17.13,-0.04c-10.81,-0.02 -21.63,-0.06 -32.44,-0.11c-12.32,-0.06 -24.63,-0.08 -36.94,-0.11c-25.33,-0.05 -50.66,-0.14 -75.99,-0.25c-0.49,-1.27 -0.97,-2.54 -1.45,-3.81l-0.82,-2.15c-0.91,-2.55 -1.46,-5.06 -1.92,-7.73l-0.48,-2.7c-0.87,-6.85 -0.87,-6.85 1.15,-9.68c6.18,-5.91 12.71,-11.21 19.5,-16.39c2.2,-1.68 4.4,-3.37 6.59,-5.06a3664.58,3664.58 0 0 1 8.91,-6.83l1.84,-1.4c4.39,-3.26 4.39,-3.26 6.56,-3.19c3.2,1.42 4.89,3.24 7.12,5.94c0.51,2.77 0.72,4.94 0.71,7.71l0.04,2.19c0.05,2.31 0.06,4.61 0.06,6.91c0.03,1.57 0.05,3.14 0.08,4.7c0.07,3.83 0.09,7.66 0.11,11.49l20,0l0.06,-9.56l0.03,-2.97c0.02,-4.94 -0.24,-9.61 -1.09,-14.47c3.8,-1.74 5.6,-2 10,-2l2,29l8,1c-0.14,-3.17 -0.29,-6.33 -0.44,-9.5l-0.12,-2.69c-0.25,-5.32 -0.71,-10.54 -1.44,-15.81c3.51,-1.6 6.14,-2.22 10,-2c0.88,6.73 1.12,13.28 1.06,20.06l-0.01,2.91c-0.01,2.35 -0.03,4.69 -0.05,7.03l8,-1l0,-27c7,-2 7,-2 9,-2c0.79,6.52 1.27,13 1.56,19.56l0.44,9.44l20,0l0.31,-8.75c0.58,-12.13 2.02,-21.73 10.19,-31.12c3.81,-3.01 7.98,-2.76 12.66,-2.55c5.34,0.79 7.85,3.16 11.09,7.3c2.82,5.03 3.98,9.65 4.38,15.39l0.26,3.5l0.23,3.6l0.27,3.68c0.21,2.98 0.41,5.97 0.61,8.95l25,1l-0.44,-9.81l-0.13,-3.08l-0.11,-2.44l-0.11,-2.49c-0.15,-2.36 -0.15,-2.36 -1.21,-5.18l-3,-1c-3.18,-6.36 -2.17,-17.15 -1,-24c3.42,-5.68 7.57,-7.84 14,-6z" fill="#222" fill-rule="nonzero" id="svg_2" stroke-dashoffset="0" stroke-miterlimit="4" transform="matrix(.44 0 0 .44 146.204 36.518)"/>
   <path d="m0,0c2.95,0.69 4.88,1.83 6.61,4.37c1.71,4.83 1.58,10.17 0.77,15.19c-1.13,1.87 -1.13,1.87 -3,3c-2.99,0.43 -2.99,0.43 -6.43,0.44l-3.44,0.06c-3.13,-0.5 -3.13,-0.5 -5.5,-2.16c-3.04,-4.38 -2.38,-9.25 -1.63,-14.34c2.18,-5.94 6.79,-6.99 12.62,-6.56z" fill="#f7f7f7" fill-rule="nonzero" id="svg_3" stroke-dashoffset="0" stroke-miterlimit="4" transform="matrix(.44 0 0 .44 124.028 50.352)"/>
   <path d="m0,0l2.63,-0.08l2.25,0.33c2.4,3.61 2.29,6.27 2.25,10.44l0.01,3.99c-0.38,5.15 -0.38,5.15 -2.26,7.57c-3.14,1.32 -6.39,1.1 -9.76,1.06l-2.98,-0.02l-2.27,-0.04c-1.71,-3.42 -1.18,-7.23 -1.18,-11l-0.04,-2.52l-0.01,-2.42l-0.01,-2.21c0.24,-1.85 0.24,-1.85 2.24,-3.85c3.03,-1.02 5.95,-1.19 9.13,-1.25z" fill="#282828" fill-rule="nonzero" id="svg_4" stroke-dashoffset="0" stroke-miterlimit="4" transform="matrix(.44 0 0 .44 71 31.12)"/>
   <path d="m0,0l3.57,0.03l2.74,0.03c1.64,3.28 1.15,6.9 1.13,10.5l0.01,2.38c-0.01,5.87 -0.01,5.87 -1.14,8.12c-3.42,1.14 -6.08,1.1 -9.69,1.07l-3.57,-0.03l-2.74,-0.04c-1.23,-3.83 -1.15,-7.65 -1.12,-11.62l-0.01,-2.07c0.01,-5.06 0.01,-5.06 1.13,-7.31c3.43,-1.14 6.09,-1.1 9.69,-1.06z" fill="#232323" fill-rule="nonzero" id="svg_5" stroke-dashoffset="0" stroke-miterlimit="4" transform="matrix(.44 0 0 .44 61.13 32.096)"/>
   <path d="m0,0l2.31,0.63c0.95,2.84 1.14,4.67 1.13,7.62l0.01,2.41c-0.14,1.97 -0.14,1.97 -1.14,2.97c-1.49,0.08 -2.98,0.11 -4.47,0.09l-2.72,-0.01l-2.87,-0.02l-2.88,-0.02c-2.35,-0.01 -4.7,-0.02 -7.06,-0.04c1.72,-3.76 3.65,-5.59 6.94,-8.13l2.65,-2.07c5.14,-3.84 5.14,-3.84 8.1,-3.43z" fill="#f5f5f5" fill-rule="nonzero" id="svg_6" stroke-dashoffset="0" stroke-miterlimit="4" transform="matrix(.44 0 0 .44 70.375 54.286)"/>
  </g>
 </g>
</svg>