<?xml version="1.0"?>
<svg width="200" height="100" xmlns="http://www.w3.org/2000/svg" xmlns:svg="http://www.w3.org/2000/svg" xml:space="preserve">
 <g class="layer" display="inline">
  <title>Layer 1</title>
  <g id="svg_1" transform="translate(4.05146 15.0163) matrix(2.02091 0 0 1.64728 -104.819 -50.1734)">
   <path d="m146.2,36.52c0.31,5.81 0.49,11.62 0.52,17.44l0.02,1.62c0.01,10.3 0.01,10.3 -2.3,13.06c-1.27,0.22 -2.29,0.29 -3.57,0.26l-1.11,0c-1.24,0 -2.47,-0.01 -3.71,-0.02c-0.88,0 -1.77,0 -2.65,0c-2.4,0 -4.81,-0.01 -7.22,-0.03c-2.51,-0.01 -5.02,-0.02 -7.54,-0.02c-4.76,-0.01 -9.52,-0.03 -14.27,-0.05c-5.42,-0.03 -10.84,-0.04 -16.25,-0.05c-11.15,-0.02 -22.29,-0.06 -33.44,-0.11c-0.22,-0.56 -0.43,-1.12 -0.64,-1.68l-0.36,-0.95c-0.4,-1.12 -0.64,-2.23 -0.84,-3.4l-0.21,-1.19c-0.38,-3.01 -0.38,-3.01 0.51,-4.26c2.72,-2.6 5.59,-4.93 8.58,-7.21c0.97,-0.74 1.94,-1.48 2.9,-2.23a1612.42,1612.42 0 0 1 3.92,-3.01l0.81,-0.62c1.93,-1.43 1.93,-1.43 2.89,-1.4c1.41,0.62 2.15,1.43 3.13,2.61c0.22,1.22 0.32,2.17 0.31,3.39l0.02,0.96c0.02,1.02 0.03,2.03 0.03,3.04c0.01,0.69 0.02,1.38 0.04,2.07c0.03,1.69 0.04,3.37 0.05,5.06l8.8,0l0.03,-4.21l0.01,-1.31c0.01,-2.17 -0.11,-4.23 -0.48,-6.37c1.67,-0.77 2.46,-0.88 4.4,-0.88l0.88,12.76l3.52,0.44c-0.06,-1.39 -0.13,-2.79 -0.19,-4.18l-0.05,-1.18c-0.11,-2.34 -0.31,-4.64 -0.63,-6.96c1.54,-0.7 2.7,-0.98 4.4,-0.88c0.39,2.96 0.49,5.84 0.47,8.83l0,1.28c0,1.03 -0.01,2.06 -0.02,3.09l3.52,-0.44l0,-11.88c3.08,-0.88 3.08,-0.88 3.96,-0.88c0.35,2.87 0.56,5.72 0.69,8.61l0.19,4.15l8.8,0l0.14,-3.85c0.26,-5.34 0.89,-9.56 4.48,-13.69c1.68,-1.32 3.51,-1.21 5.57,-1.12c2.35,0.35 3.45,1.39 4.88,3.21c1.24,2.21 1.75,4.25 1.93,6.77l0.11,1.54l0.1,1.58l0.12,1.62c0.09,1.31 0.18,2.63 0.27,3.94l11,0.44l-0.19,-4.32l-0.06,-1.36l-0.05,-1.07l-0.05,-1.1c-0.07,-1.04 -0.07,-1.04 -0.53,-2.28l-1.32,-0.44c-1.4,-2.8 -0.95,-7.55 -0.44,-10.56c1.5,-2.5 3.33,-3.45 6.16,-2.64z" fill="#ffffff" fill-rule="nonzero" id="svg_2" stroke-dashoffset="0" stroke-miterlimit="4" transform="matrix(1 0 0 1 0 0)"/>
   <path d="m124.03,50.35c1.3,0.3 2.15,0.81 2.91,1.92c0.75,2.13 0.7,4.47 0.34,6.68c-0.5,0.82 -0.5,0.82 -1.32,1.32c-1.32,0.19 -1.32,0.19 -2.83,0.19l-1.51,0.03c-1.38,-0.22 -1.38,-0.22 -2.42,-0.95c-1.34,-1.93 -1.05,-4.07 -0.72,-6.31c0.96,-2.61 2.99,-3.08 5.55,-2.89z" fill="#000000" fill-rule="nonzero" id="svg_3" stroke-dashoffset="0" stroke-miterlimit="4" transform="matrix(1 0 0 1 0 0)"/>
   <path d="m71,31.12l1.16,-0.04l0.99,0.15c1.06,1.59 1.01,2.76 0.99,4.59l0,1.76c-0.17,2.27 -0.17,2.27 -0.99,3.33c-1.38,0.58 -2.81,0.48 -4.29,0.47l-1.31,-0.01l-1,-0.02c-0.75,-1.5 -0.52,-3.18 -0.52,-4.84l-0.02,-1.11l0,-1.06l0,-0.97c0.11,-0.81 0.11,-0.81 0.99,-1.69c1.33,-0.45 2.62,-0.52 4.02,-0.55z" fill="#ffffff" fill-rule="nonzero" id="svg_4" stroke-dashoffset="0" stroke-miterlimit="4" transform="matrix(1 0 0 1 0 0)"/>
   <path d="m61.13,32.1l1.57,0.01l1.21,0.01c0.72,1.44 0.51,3.04 0.5,4.62l0,1.05c0,2.58 0,2.58 -0.5,3.57c-1.5,0.5 -2.68,0.48 -4.26,0.47l-1.57,-0.01l-1.21,-0.02c-0.54,-1.69 -0.51,-3.37 -0.49,-5.11l0,-0.91c0,-2.23 0,-2.23 0.5,-3.22c1.51,-0.5 2.68,-0.48 4.26,-0.47z" fill="#ffffff" fill-rule="nonzero" id="svg_5" stroke-dashoffset="0" stroke-miterlimit="4"/>
   <path d="m70.38,54.29l1.02,0.28c0.42,1.25 0.5,2.05 0.5,3.35l0,1.06c-0.06,0.87 -0.06,0.87 -0.5,1.31c-0.66,0.04 -1.31,0.05 -1.97,0.04l-1.2,0l-1.26,-0.01l-1.27,-0.01c-1.03,0 -2.07,-0.01 -3.11,-0.02c0.76,-1.65 1.61,-2.46 3.05,-3.58l1.17,-0.91c2.26,-1.69 2.26,-1.69 3.56,-1.51z" fill="#000000" fill-rule="nonzero" id="svg_6" stroke-dashoffset="0" stroke-miterlimit="4" transform="matrix(1 0 0 1 0 0)"/>
  </g>
 </g>
</svg>